<svg id="Certificate" xmlns="http://www.w3.org/2000/svg" width="11.3in" height="8.8in" viewBox="0 0 810 630"><defs><style>.cls-1{fill:#fff;}.cls-2{fill:#192127;}.cls-3{fill:#1386c8;}.cls-4{fill:#0569b3;}.cls-5{fill:#194683;}</style></defs><rect id="Background" class="cls-1" x="-9" y="-9" width="810" height="630" transform="translate(801 621) rotate(180)"/><g id="Shapes"><path class="cls-2" d="M800.4,13.6V-9H-9v2.1C81.2,1.6,307,31.2,395.4,106.9,483.8,31.2,710.2,22.1,800.4,13.6Z" transform="translate(9 9)"/><path class="cls-3" d="M532,129.4c70.7-54.1,160.1-94.7,269-95v79.9C674.4,60.6,549.2,120.5,532,129.4Z" transform="translate(9 9)"/><path class="cls-4" d="M519.3,139.4l12.7-10c17.2-8.9,142.4-68.8,269-15.1V227.7C748,168.1,652.7,97.4,519.3,139.4Z" transform="translate(9 9)"/><path class="cls-5" d="M504.7,151.7c4.8-4.2,9.7-8.3,14.6-12.3C652.7,97.4,748,168.1,801,227.7v61.9C690.8,115,506.5,151.3,504.7,151.7Z" transform="translate(9 9)"/><path class="cls-3" d="M260,129.4C189.3,75.3,99.9,34.7-9,34.4v79.9C117.6,60.6,242.8,120.5,260,129.4Z" transform="translate(9 9)"/><path class="cls-4" d="M272.7,139.4l-12.7-10c-17.2-8.9-142.4-68.8-269-15.1V227.7C44,168.1,139.3,97.4,272.7,139.4Z" transform="translate(9 9)"/><path class="cls-5" d="M287.3,151.7c-4.8-4.2-9.7-8.3-14.6-12.3C139.3,97.4,44,168.1-9,227.7v61.9C101.2,115,285.5,151.3,287.3,151.7Z" transform="translate(9 9)"/><path class="cls-3" d="M396,240.3C480.1,149.7,634.1,15.9,801,34.4V-9H650.9C560.7-.5,484.4,29.1,396,104.8,307.6,29.1,231.3-.5,141.1-9H-9V34.4C157.9,15.9,311.9,149.7,396,240.3Z" transform="translate(9 9)"/><path class="cls-4" d="M396,172.5C518.2,47,634.1,15.9,801,34.4V-9H650.9C560.7-.5,484.4,29.1,396,104.8,307.6,29.1,231.3-.5,141.1-9H-9V34.4C157.9,15.9,273.8,47,396,172.5Z" transform="translate(9 9)"/></g></svg>